<svg xmlns="http://www.w3.org/2000/svg" xmlns:xlink="http://www.w3.org/1999/xlink" version="1.1" width="1000" height="1000" viewBox="0 0 1000 1000" xml:space="preserve">
<desc>Created with Fabric.js 3.5.0</desc>
<defs>
</defs>
<rect x="0" y="0" width="100%" height="100%" fill="#ffffff"/>
<g transform="matrix(-18.9394 0 0 -18.9394 499.9999 499.9999)" id="954767">
<g style="" vector-effect="non-scaling-stroke">
		<g transform="matrix(1 0 0 1 7 -6)">
<path style="stroke: none; stroke-width: 1; stroke-dasharray: none; stroke-linecap: butt; stroke-dashoffset: 0; stroke-linejoin: miter; stroke-miterlimit: 4; is-custom-font: none; font-file-url: none; fill: rgb(255,193,7); fill-rule: nonzero; opacity: 1;" transform=" translate(-31, -18)" d="M 17 6 L 31 6 L 45 30 L 31 30 z" stroke-linecap="round"/>
</g>
		<g transform="matrix(1 0 0 1 3.4375 12)">
<path style="stroke: none; stroke-width: 1; stroke-dasharray: none; stroke-linecap: butt; stroke-dashoffset: 0; stroke-linejoin: miter; stroke-miterlimit: 4; is-custom-font: none; font-file-url: none; fill: rgb(25,118,210); fill-rule: nonzero; opacity: 1;" transform=" translate(-27.4375, -36)" d="M 9.875 42 L 16.938 30 L 45 30 L 38 42 z" stroke-linecap="round"/>
</g>
		<g transform="matrix(1 0 0 1 -10.5 0)">
<path style="stroke: none; stroke-width: 1; stroke-dasharray: none; stroke-linecap: butt; stroke-dashoffset: 0; stroke-linejoin: miter; stroke-miterlimit: 4; is-custom-font: none; font-file-url: none; fill: rgb(76,175,80); fill-rule: nonzero; opacity: 1;" transform=" translate(-13.5, -24)" d="M 3 30.125 L 9.875 42 L 24 18 L 17 6 z" stroke-linecap="round"/>
</g>
</g>
</g>
</svg>